<?xml version="1.0" encoding="UTF-8"?>
<svg xmlns="http://www.w3.org/2000/svg" width="512" height="512" viewBox="0 0 512 512" fill="none">
  <defs>
    <linearGradient id="gCard" x1="96.0" y1="56.0" x2="416.0" y2="456.0" gradientUnits="userSpaceOnUse">
      <stop offset="0" stop-color="#3B4252"/>
      <stop offset="1" stop-color="#2E3440"/>
    </linearGradient>
    <linearGradient id="gBand" x1="96.0" y1="360.0" x2="416.0" y2="456.0" gradientUnits="userSpaceOnUse">
      <stop offset="0" stop-color="#232833"/>
      <stop offset="1" stop-color="#1D212A"/>
    </linearGradient>
    <filter id="shadow" x="-25%" y="-25%" width="150%" height="150%">
      <feDropShadow dx="0" dy="10" stdDeviation="12" flood-color="#000000" flood-opacity="0.18"/>
    </filter>
    <filter id="stackShadow" x="-30%" y="-30%" width="160%" height="160%">
      <feDropShadow dx="0" dy="5" stdDeviation="6" flood-color="#000000" flood-opacity="0.22"/>
    </filter>
  </defs>

  <path d="M 140.0 56.0 H 344.0 L 416.0 128.0 V 412.0 A 44.0 44.0 0 0 1 372.0 456.0 H 140.0 A 44.0 44.0 0 0 1 96.0 412.0 V 100.0 A 44.0 44.0 0 0 1 140.0 56.0 Z" fill="url(#gCard)" filter="url(#shadow)"/>

  <!-- Bottom band -->
  <path d="M 140.0 360.0
           H 344.0
           L 416.0 128.0
           V 412.0
           A 44.0 44.0 0 0 1 372.0 456.0
           H 140.0
           A 44.0 44.0 0 0 1 96.0 412.0
           V 404.0
           A 44.0 44.0 0 0 1 140.0 360.0
           Z"
        fill="url(#gBand)" opacity="0.92"/>

  <!-- Notch -->
  <rect x="134.0" y="90.0" width="18" height="54" rx="7" fill="#FFFFFF" opacity="0.92"/>

  <!-- Stack -->
  <g filter="url(#stackShadow)">
    <path d="M 162.0 286.0 L 332.0 286.0 L 388.0 332.0 L 218.0 332.0 Z" fill="#38BDF8" opacity="0.96"/>
    <path d="M 162.0 222.0 L 332.0 222.0 L 388.0 268.0 L 218.0 268.0 Z" fill="#34D399" opacity="0.96"/>
    <path d="M 162.0 158.0 L 332.0 158.0 L 388.0 204.0 L 218.0 204.0 Z" fill="#FFFFFF" opacity="0.98"/>
  </g>

  <!-- Contacts -->
  <g>
    <circle cx="212.0" cy="416.0" r="12" fill="#5EEAD4"/>
    <circle cx="256.0" cy="416.0" r="12" fill="#5EEAD4" opacity="0.92"/>
    <circle cx="300.0" cy="416.0" r="12" fill="#5EEAD4" opacity="0.84"/>
  </g>
</svg>
